<?xml version="1.0" encoding="UTF-8"?>
<svg id="Layer_1" data-name="Layer 1" xmlns="http://www.w3.org/2000/svg" viewBox="0 0 1080 1080">
  <path d="M462.24,323.24h44.08s-44.08,0-44.08,0Z"/>
  <polygon points="802.4 317 802.4 360.75 764.63 360.75 764.39 534.41 720.63 534.41 720.39 360.75 506.32 360.75 506.33 534.41 462.24 534.41 383.73 431.49 383.73 534.41 339.75 534.41 339.75 360.75 383.6 360.75 459.54 460.21 462.11 464.22 462.11 317 802.4 317"/>
  <circle cx="613.1" cy="450.75" r="17.09"/>
  <path d="M613.41,388.07c-34.28,0-62.16,27.89-62.16,62.16s27.89,62.16,62.16,62.16,62.16-27.89,62.16-62.16-27.89-62.16-62.16-62.16ZM644.94,450.24c0,17.38-14.14,31.53-31.53,31.53s-31.53-14.14-31.53-31.53,14.14-31.53,31.53-31.53,31.53,14.14,31.53,31.53Z"/>
  <path d="M101.1,489.59h85.9c9.45,0,18.25,1.48,26.42,4.43,8.16,2.95,15.2,6.89,21.11,11.81,5.91,4.92,10.53,10.68,13.88,17.27,3.35,6.6,5.02,13.43,5.02,20.52,0,11.61-2.8,21.25-8.41,28.93-5.61,7.68-12.25,13.38-19.93,17.12h0c11.22,4.13,20.02,13.38,26.42,21.85,6.39,8.46,9.59,18.89,9.59,31.29,0,9.05-1.82,17.17-5.46,24.35-3.65,7.19-8.66,13.28-15.06,18.3-6.4,5.02-13.97,8.86-22.73,11.51-8.76,2.66-18.26,3.98-28.49,3.98h-88.26v-211.36ZM182.58,573.43c8.27,0,14.66-1.87,19.19-5.61,4.52-3.74,6.79-9.05,6.79-15.94s-2.27-12.2-6.79-15.94c-4.53-3.74-10.53-5.61-18-5.61h-36.61v43.1h35.42ZM186.41,659.63c19.09,0,28.64-7.87,28.64-23.61s-9.94-23.62-29.81-23.62h-38.08v47.23h39.26Z"/>
  <path d="M361.77,551.61c10.91,0,21.01,1.86,30.3,5.57,9.29,3.71,17.33,8.85,24.13,15.42,6.79,6.57,12.06,14.42,15.79,23.56,3.74,9.14,5.6,19.13,5.6,29.99s-1.87,20.85-5.6,29.99c-3.73,9.14-9,16.99-15.79,23.56-6.8,6.57-14.84,11.71-24.13,15.42-9.29,3.71-19.38,5.57-30.3,5.57s-21.01-1.86-30.3-5.57c-9.29-3.71-17.33-8.85-24.12-15.42-6.8-6.57-12.06-14.42-15.8-23.56-3.73-9.14-5.6-19.13-5.6-29.99s1.87-20.85,5.6-29.99c3.73-9.14,9-16.99,15.8-23.56,6.79-6.57,14.83-11.71,24.12-15.42,9.29-3.71,19.39-5.57,30.3-5.57ZM361.77,660.7c4.4,0,8.57-.81,12.49-2.43,3.92-1.61,7.42-3.9,10.48-6.85,3.06-2.95,5.46-6.57,7.18-10.85s2.59-9.09,2.59-14.42-.86-10.09-2.59-14.28c-1.72-4.19-4.12-7.8-7.18-10.85-3.06-3.04-6.56-5.38-10.48-7-3.93-1.62-8.09-2.43-12.49-2.43s-8.57.81-12.49,2.43c-3.93,1.62-7.42,3.95-10.48,7-3.06,3.05-5.46,6.67-7.18,10.85-1.72,4.19-2.58,8.95-2.58,14.28s.86,10.14,2.58,14.42c1.72,4.28,4.12,7.9,7.18,10.85,3.06,2.95,6.56,5.24,10.48,6.85,3.92,1.62,8.09,2.43,12.49,2.43Z"/>
  <path d="M590.98,700.97v-166.56h44.28v166.56h-44.28Z"/>
  <path d="M902.21,763c-10.23,0-19.39-1.29-27.5-3.87-8.1-2.58-15.19-5.92-21.27-10.02-6.08-4.11-11.1-8.69-15.05-13.75-3.96-5.06-6.9-10.17-8.83-15.32l41.67-16.33c2.7,7.25,6.94,12.65,12.73,16.18,5.79,3.53,11.87,5.3,18.23,5.3,10.42,0,18.85-3.34,25.32-10.03,6.46-6.69,9.69-16.23,9.69-28.64v-7.73h-2.89c-8.88,11.84-22.39,17.76-40.52,17.76-8.1,0-16.11-1.67-24.02-5.01-7.91-3.34-15.05-8.11-21.42-14.32-6.37-6.2-11.48-13.79-15.34-22.77-3.86-8.97-5.79-19.09-5.79-30.36s1.93-21.38,5.79-30.36c3.86-8.97,8.97-16.56,15.34-22.77,6.37-6.2,13.5-10.98,21.42-14.32,7.91-3.34,15.91-5.01,24.02-5.01,18.13,0,34.54,5.92,43.41,17.76h0v-35.05h41.67v150.19c0,11.46-1.78,22.01-5.36,31.65-3.57,9.64-8.68,17.94-15.34,24.92-6.66,6.97-14.72,12.36-24.17,16.18-9.45,3.82-20.07,5.73-31.83,5.73ZM903.94,657.6c4.05,0,8.05-.72,12.01-2.15,3.95-1.43,7.52-3.53,10.71-6.3,3.18-2.77,5.74-6.25,7.67-10.46,1.93-4.2,2.89-9.07,2.89-14.61s-.97-10.41-2.89-14.61c-1.93-4.2-4.49-7.68-7.67-10.45-3.18-2.76-6.76-4.87-10.71-6.3-3.96-1.43-7.96-2.15-12.01-2.15s-8.06.72-12.01,2.15c-3.96,1.43-7.52,3.54-10.71,6.3-3.18,2.77-5.74,6.26-7.67,10.45-1.93,4.2-2.89,9.07-2.89,14.61s.96,10.41,2.89,14.61c1.93,4.2,4.49,7.69,7.67,10.46,3.18,2.77,6.75,4.87,10.71,6.3,3.95,1.43,7.96,2.15,12.01,2.15Z"/>
  <path d="M553.45,551.62c-19.66,0-37.38,7.64-47.23,23.02v-23.02h-43.96v149.33h44.05v-66.4c0-12.37,2.61-22.44,7.86-30.09,5.21-7.69,12.81-11.53,22.84-11.53,7.86,0,20.1,6.05,23.86,11.09,1.55,2.12,3.62,4.46,5.26,7.07v-58.5c-4.02-.62-9.19-.97-12.68-.97Z"/>
  <path d="M802.41,614.8v86.15h-44.31v-81.16c0-7.86-1.86-14.31-5.57-19.35-3.76-4.99-9.59-7.51-17.45-7.51-10.03,0-17.63,3.84-22.84,11.53-5.26,7.64-7.86,17.72-7.86,30.09v66.4h-44.27v-149.33h43.92v19.44c10.12-12.99,26.55-19.44,44.67-19.44s31.59,5.79,40.43,17.41c8.88,11.62,13.3,26.86,13.3,45.77Z"/>
</svg>
